<svg version="1.1" xmlns="http://www.w3.org/2000/svg" x="0" y="0" viewBox="25.56 23.76 92.88 24.48" xml:space="preserve" enable-background="new 0 0 144 72" width="3794" height="1000"><path d="M64.724 24c-2.173 0-3.587.707-4.851 3.082l-5.76 10.863v-9.651c0-2.88-1.364-4.295-3.891-4.295-2.526 0-3.587.859-4.851 3.284l-5.457 10.661v-9.549c0-3.082-1.263-4.396-4.345-4.396h-6.265c-2.375 0-3.688 1.112-3.688 3.133s1.263 3.234 3.587 3.234h2.577v12.177c0 3.436 2.324 5.457 5.659 5.457s4.851-1.314 6.518-4.396l3.638-6.821v5.76c0 3.385 2.223 5.457 5.608 5.457s4.648-1.162 6.568-4.396l8.387-14.147c1.821-3.082.558-5.457-3.484-5.457zm15.764 0c-6.872 0-12.076 5.103-12.076 12.025S73.667 48 80.488 48s12.025-5.103 12.076-11.975C92.564 29.103 87.309 24 80.488 24m0 16.623c-2.577 0-4.345-1.92-4.345-4.598s1.768-4.648 4.345-4.648 4.345 1.971 4.345 4.648-1.717 4.598-4.345 4.598M106.307 24c-6.821 0-12.076 5.103-12.076 12.025S99.486 48 106.307 48s12.076-5.103 12.076-11.975S113.128 24 106.307 24m0 16.623c-2.627 0-4.295-1.92-4.295-4.598s1.718-4.648 4.295-4.648 4.345 1.971 4.345 4.648-1.717 4.598-4.345 4.598" fill-rule="evenodd" clip-rule="evenodd" fill="#873EFF"/></svg>