<?xml version="1.0" encoding="UTF-8"?>
<!DOCTYPE svg PUBLIC "-//W3C//DTD SVG 1.1//EN" "http://www.w3.org/Graphics/SVG/1.1/DTD/svg11.dtd">
<!-- Creator: CorelDRAW X8 -->
<svg xmlns="http://www.w3.org/2000/svg" xml:space="preserve" width="256px" height="256px" version="1.1" style="shape-rendering:geometricPrecision; text-rendering:geometricPrecision; image-rendering:optimizeQuality; fill-rule:evenodd; clip-rule:evenodd"
viewBox="0 0 596475 596473"
 xmlns:xlink="http://www.w3.org/1999/xlink">
 <defs>
  <style type="text/css">
   <![CDATA[
    .fil0 {fill:none}
    .fil1 {fill:#1F1B20}
    .fil2 {fill:#F70E08}
    .fil3 {fill:#2B2A29;fill-rule:nonzero}
   ]]>
  </style>
 </defs>
 <g id="Layer_x0020_1">
  <metadata id="CorelCorpID_0Corel-Layer"/>
  <rect class="fil0" x="-1" width="596478" height="596473"/>
  <g id="_2538671366064">
   <path class="fil1" d="M174797 370143c-1392,-7331 9805,-9326 11033,-2163 1296,7617 -9734,9034 -11033,2163zm159117 -7763l1610 -768c2331,-289 4304,432 5071,2570l-217 -168c314,215 1659,121 1371,3894 -386,4734 -6872,6415 -8314,3795 -3773,-264 -3655,-6847 -1156,-8795 1156,-889 146,-457 1635,-528zm-92787 -235585c7282,-2331 9830,8652 3341,10573 -7139,2116 -10694,-8217 -3341,-10573zm-95767 -39870c0,-5069 1874,-9010 4516,-11318 3269,-2860 27205,-11776 32998,-14178 14849,-6129 29847,-11993 44868,-17976 15042,-6032 29701,-12111 44892,-17976 7328,-2812 16269,-8052 23647,-5814 3484,1056 7739,2859 11390,4323 1899,770 9302,3341 10719,4711l-39006 15692c-12950,5025 -26074,10622 -39124,15644l-49023 19660c-9444,3990 -16247,12425 -16176,24272l25 192231c-3990,-914 -8891,-4301 -11800,-6272 -9637,-6514 -17926,-20981 -17926,-35134l0 -167865zm311334 -66398c1178,-361 2212,-914 4422,481 1203,768 2042,1657 2452,3388 696,3077 -1178,5961 -3919,6657 -6367,1656 -9612,-6610 -4925,-9830 1587,-1082 696,-311 1970,-696zm7331 17640c3220,-1853 4541,-2645 6200,-5914 4398,-8603 -963,-19968 -11753,-20235 -11198,-265 -17134,11728 -12376,20405 1563,2860 3220,4013 6057,5647 696,8242 97,19225 97,27756l0 137800c0,16245 1945,37994 -4569,50273 -8099,15287 -15716,17807 -31025,24178 -13050,5430 -26339,10380 -39435,15813 -12953,5358 -26435,10454 -39438,15741l-29512 11822c-2570,1106 -7281,3437 -9827,2956 -1178,-3627 -528,-28142 -528,-34174l0 -140032c-25,-5647 550,-9590 3652,-12761 1609,-1634 3555,-2308 5093,-3173 1803,-1010 3534,-1659 5793,-2523 16870,-6514 33260,-13531 50011,-20042l62483 -25065c7378,-2884 20691,-5408 18168,-16679 -1225,-5455 -4398,-6104 -9373,-8146 -41287,-16969 -83125,-33164 -124701,-49986 -9516,-3869 -16726,-7307 -27877,-2477 -16366,7067 -33527,13193 -49989,20042 -24751,10334 -50226,19946 -75051,30016 -9876,4015 -15716,6274 -19849,14734 -4159,8459 -2695,21652 -2695,32082 0,18817 -718,149501 435,156950 72,578 168,1371 264,1874l1489 5290c4158,11847 11344,23069 21895,30183l5575 3387c3459,2117 7857,3655 11847,5169l0 46694c-746,1368 -2548,1874 -3555,2714 -3751,3005 -5601,7499 -4736,12835 2405,14610 22230,14874 26652,1874 2284,-6729 -1225,-12739 -6489,-16223l0 -42872c2380,239 60851,23887 67651,26820 16797,7210 34126,13289 51020,20403 5191,2188 11487,4975 16677,6682 2163,16605 24008,17062 27302,1921 2642,-12087 -10622,-19754 -19874,-14924 -4783,2499 -2235,2427 -8342,-25 -9634,-3844 -64285,-26410 -72791,-29077l0 -180623c696,-3054 9924,-4736 7496,-16319 -2906,-13842 -23430,-13892 -26699,-360 -1802,7499 2405,13385 7378,15766l-25 176536c-5118,-1368 -19560,-7593 -25304,-9948 -7859,-3245 -17254,-6465 -24489,-9998 -746,-56739 -25,-113718 -25,-170507 0,-37946 -4469,-34438 22640,-45443l73105 -29272c16223,-6679 32589,-13264 48737,-19489 3173,-1225 2645,-1682 6057,-289 22205,9013 44867,17640 67001,26820 4302,1803 8074,3173 12183,4926 2956,1250 9158,3198 11586,4758 -2260,1346 -6828,2956 -9783,4112l-68947 27563c-13146,5311 -26124,10501 -39413,15837 -15909,6393 -24201,10166 -23984,31122 576,55176 0,110449 0,165628 0,4615 -385,8891 1418,12400 1392,2716 4351,5432 7402,6536 6897,2523 14899,-2260 21075,-4662 13314,-5190 26388,-10551 39438,-15788 13289,-5311 26242,-10311 39435,-15790 13195,-5480 26531,-9998 39438,-15813 7642,-3437 14659,-9877 18936,-16077 4950,-7160 8966,-15309 10119,-24008 1274,-9516 600,-29704 600,-39892l0 -110426c0,-14564 -625,-42080 49,-55033z"/>
   <path class="fil2" d="M305076 142489l25 172260c3412,-867 99780,-39988 112975,-45131 3338,-1299 7161,-2502 9995,-4398 1948,-1299 4279,-2645 6107,-4640 3170,-3484 5215,-5790 7424,-10573l1946 -5286c360,-1442 1059,-4494 1299,-5575l71 -12643c0,-45924 -456,-94325 50,-139960l-139892 55946z"/>
   <path class="fil2" d="M192269 295186l38692 15741c746,-13072 143,-42655 143,-57482l0 -101007c50,-7353 265,-2188 -4972,-9709 -9783,-14035 3508,-34030 21267,-29872 12232,2859 20210,18047 11104,30929 -5023,7089 -4208,-1203 -4208,17183l0 101439c0,19007 -550,38860 49,57749l24465 9948 0 -144889c0,-12664 -1225,-37058 1274,-47223 1464,-6008 5166,-11534 9060,-15188 3990,-3748 9323,-6032 15694,-8553l69236 -27781c7667,-3054 28548,-11850 34726,-13795l-10886 -4662c-18890,-7427 -43043,-16798 -61234,-24536 -5746,-2427 -5696,-771 -17161,3773l-111604 44603c-14371,5790 -15238,4398 -15260,16173l-385 155726c-25,9830 -696,21892 0,31433z"/>
   <path class="fil2" d="M169390 105768c74,-17183 7763,-26653 20331,-31603 12546,-4951 24586,-9877 37178,-14924l74237 -29919c-1154,-650 -8171,-3556 -9277,-3556l-28070 11077c-25089,9926 -49436,20116 -74379,29801 -6272,2427 -12257,5093 -18578,7474 -3074,1153 -6368,2474 -9324,3676 -2499,1032 -6946,2452 -8867,3748 -674,17880 0,37154 0,55201l0 109970c0,11080 -624,15045 3627,23744 1852,3773 5768,9134 8917,11729l3484 2812 721 -179230z"/>
  </g>
  <path class="fil3" d="M124074 484876c52,0 96,17 129,47 36,30 52,72 52,119 0,49 -16,88 -52,121 -33,30 -77,46 -129,46 -53,0 -97,-16 -133,-49 -33,-30 -49,-69 -49,-118 0,-47 16,-86 49,-119 36,-30 80,-47 133,-47zm605 0c52,0 96,17 129,47 36,30 53,72 53,119 0,49 -17,88 -53,121 -33,30 -77,46 -129,46 -52,0 -96,-16 -129,-49 -36,-30 -53,-69 -53,-118 0,-47 17,-86 53,-119 33,-30 77,-47 129,-47zm605 0c53,0 97,17 132,47 34,30 53,72 53,119 0,49 -19,88 -53,121 -35,30 -79,46 -132,46 -52,0 -96,-16 -129,-49 -36,-30 -52,-69 -52,-118 0,-47 16,-86 52,-119 33,-30 77,-47 129,-47zm609 0c52,0 96,17 129,47 36,30 52,72 52,119 0,49 -16,88 -52,121 -33,30 -77,46 -129,46 -53,0 -97,-16 -133,-49 -33,-30 -49,-69 -49,-118 0,-47 16,-86 49,-119 36,-30 80,-47 133,-47zm605 0c52,0 96,17 129,47 36,30 53,72 53,119 0,49 -17,88 -53,121 -33,30 -77,46 -129,46 -52,0 -96,-16 -129,-49 -36,-30 -53,-69 -53,-118 0,-47 17,-86 53,-119 33,-30 77,-47 129,-47zm74652 -28111c-276,5854 -1852,11014 -4747,15508 -2879,4471 -6938,7939 -12139,10402 -5221,2463 -11173,3704 -17871,3704 -11055,0 -19743,-3605 -26089,-10796 -6365,-7193 -9535,-17359 -9535,-30483l0 -4155c0,-8237 1437,-15450 4315,-21617 2857,-6186 6995,-10955 12373,-14324 5380,-3371 11627,-5044 18699,-5044 10207,0 18405,2680 24591,8058 6206,5361 9715,12769 10562,22186l-20196 0c-160,-5122 -1439,-8806 -3864,-11052 -2422,-2226 -6128,-3352 -11093,-3352 -5044,0 -8729,1894 -11074,5655 -2344,3784 -3585,9814 -3704,18108l0 5953c0,8963 1123,15388 3391,19249 2245,3842 6125,5774 11624,5774 4650,0 8217,-1104 10680,-3291 2463,-2207 3762,-5694 3921,-10483l20156 0zm6247 -3349c0,-6247 1221,-11803 3646,-16671 2422,-4865 5911,-8608 10443,-11230 4552,-2620 9872,-3922 16000,-3922 9337,0 16707,2898 22106,8691 5380,5792 8080,13674 8080,23644l0 691c0,9734 -2700,17475 -8118,23190 -5399,5713 -12731,8570 -21952,8570 -8906,0 -16039,-2658 -21419,-7997 -5396,-5322 -8294,-12552 -8726,-21674l-60 -3292zm19467 1203c0,5771 908,10009 2699,12708 1814,2700 4494,4040 8039,4040 6918,0 10463,-5341 10622,-16000l0 -1951c0,-11211 -3586,-16808 -10738,-16808 -6503,0 -10031,4829 -10562,14483l-60 3528zm112075 31760c-9596,0 -17340,-2857 -23271,-8570 -5933,-5715 -8888,-13162 -8888,-22323l0 -1618c0,-6382 1183,-12018 3547,-16905 2364,-4907 5812,-8688 10364,-11349 4532,-2681 9931,-4021 16159,-4021 8768,0 15703,2722 20785,8179 5086,5457 7626,13044 7626,22797l0 7565 -38678 0c690,3489 2207,6247 4551,8236 2345,1990 5380,2997 9123,2997 6148,0 10975,-2149 14423,-6445l8908 10504c-2425,3330 -5873,6008 -10306,7978 -4453,1990 -9241,2975 -14343,2975zm-2207 -49771c-5697,0 -9084,3783 -10149,11351l19626 0 0 -1500c77,-3131 -710,-5556 -2366,-7270 -1654,-1715 -4037,-2581 -7111,-2581zm58993 -29320l0 15488 10265 0 0 13477 -10265 0 0 28592c0,2345 432,3979 1260,4904 848,927 2524,1382 5025,1382 1932,0 3548,-119 4846,-355l0 13930c-3486,1123 -7152,1673 -10955,1673 -6698,0 -11643,-1574 -14836,-4728 -3192,-3173 -4788,-7961 -4788,-14384l0 -31014 -7981 0 0 -13477 7981 0 0 -15488 19448 0zm48175 79091c-9596,0 -17340,-2857 -23270,-8570 -5931,-5715 -8886,-13162 -8886,-22323l0 -1618c0,-6382 1183,-12018 3547,-16905 2364,-4907 5812,-8688 10364,-11349 4532,-2681 9932,-4021 16156,-4021 8768,0 15706,2722 20789,8179 5082,5457 7625,13044 7625,22797l0 7565 -38678 0c688,3489 2207,6247 4551,8236 2345,1990 5378,2997 9123,2997 6148,0 10975,-2149 14423,-6445l8905 10504c-2421,3330 -5870,6008 -10303,7978 -4453,1990 -9241,2975 -14346,2975zm-2207 -49771c-5694,0 -9084,3783 -10146,11351l19624 0 0 -1500c80,-3131 -710,-5556 -2364,-7270 -1654,-1715 -4040,-2581 -7114,-2581zm-141100 48189c66,0 119,19 163,57 44,39 66,88 66,149 0,61 -22,110 -66,149 -44,38 -97,57 -163,57 -66,0 -121,-19 -162,-57 -44,-39 -66,-88 -66,-149 0,-58 22,-107 66,-149 41,-38 96,-57 162,-57zm757 0c66,0 121,19 163,57 44,39 66,88 66,149 0,61 -22,110 -66,149 -42,38 -97,57 -163,57 -66,0 -118,-19 -162,-57 -44,-39 -63,-88 -63,-149 0,-58 19,-107 63,-149 44,-38 96,-57 162,-57zm760 0c63,0 118,19 162,57 44,39 66,88 66,149 0,61 -22,110 -66,149 -44,38 -99,57 -162,57 -66,0 -121,-19 -165,-57 -42,-39 -64,-88 -64,-149 0,-58 22,-107 64,-149 44,-38 99,-57 165,-57zm756 0c67,0 122,19 163,57 44,39 66,88 66,149 0,61 -22,110 -66,149 -41,38 -96,57 -163,57 -66,0 -121,-19 -162,-57 -44,-39 -66,-88 -66,-149 0,-58 22,-107 66,-149 41,-38 96,-57 162,-57z"/>
  <path class="fil3" d="M201026 547788c0,8234 -1525,15540 -4574,21873 -3049,6357 -7405,11244 -13025,14670 -5622,3424 -12037,5127 -19222,5127 -7188,0 -13581,-1662 -19142,-4970 -5565,-3305 -9899,-8036 -13028,-14192 -3107,-6136 -4731,-13203 -4890,-21181l0 -4753c0,-8275 1505,-15579 4554,-21913 3030,-6313 7384,-11204 13044,-14649 5664,-3445 12117,-5165 19344,-5165 7144,0 13539,1700 19142,5104 5600,3407 9957,8256 13083,14531 3109,6296 4673,13501 4714,21638l0 3880zm-20708 -3563c0,-8413 -1385,-14789 -4197,-19143 -2810,-4356 -6808,-6533 -12034,-6533 -10216,0 -15601,7661 -16176,23003l-58 6217c0,8272 1365,14649 4117,19101 2733,4456 6811,6671 12235,6671 5146,0 9106,-2196 11877,-6572 2791,-4375 4197,-10650 4236,-18864l0 -3880zm48301 -18667l633 7364c4337,-5702 10295,-8553 17915,-8553 6533,0 11424,1960 14652,5859 3225,3900 4909,9781 5008,17618l0 40423 -19599 0 0 -39592c0,-3165 -633,-5501 -1921,-6987 -1266,-1483 -3583,-2237 -6949,-2237 -3819,0 -6670,1505 -8531,4513l0 44303 -19538 0 0 -62711 18330 0zm69643 62711l-19599 0 0 -89080 19599 0 0 89080zm32663 0l-19599 0 0 -62711 19599 0 0 62711zm-20766 -78925c0,-2791 1010,-5088 3008,-6888 2020,-1783 4634,-2672 7840,-2672 3206,0 5821,889 7821,2672 2017,1800 3027,4097 3027,6888 0,2790 -1010,5088 -3027,6888 -2000,1783 -4615,2675 -7821,2675 -3206,0 -5820,-892 -7840,-2675 -1998,-1800 -3008,-4098 -3008,-6888zm53162 16214l633 7364c4337,-5702 10295,-8553 17915,-8553 6533,0 11423,1960 14651,5859 3225,3900 4910,9781 5009,17618l0 40423 -19600 0 0 -39592c0,-3165 -632,-5501 -1920,-6987 -1266,-1483 -3583,-2237 -6949,-2237 -3820,0 -6671,1505 -8531,4513l0 44303 -19539 0 0 -62711 18331 0zm80084 63900c-9640,0 -17420,-2870 -23378,-8611 -5961,-5740 -8930,-13223 -8930,-22428l0 -1624c0,-6414 1189,-12075 3564,-16985 2375,-4928 5840,-8729 10413,-11404 4552,-2691 9976,-4037 16234,-4037 8809,0 15777,2733 20884,8215 5108,5484 7662,13105 7662,22904l0 7601 -38860 0c693,3503 2215,6277 4571,8275 2355,2001 5404,3011 9166,3011 6176,0 11027,-2161 14492,-6476l8946 10551c-2435,3347 -5900,6038 -10352,8019 -4475,1998 -9285,2989 -14412,2989zm-2218 -50005c-5721,0 -9126,3800 -10193,11404l19714 0 0 -1506c80,-3148 -710,-5581 -2374,-7303 -1663,-1723 -4057,-2595 -7147,-2595zm-103432 48497c53,0 97,14 130,44 36,33 52,72 52,121 0,47 -16,88 -52,118 -33,31 -77,47 -130,47 -52,0 -96,-16 -132,-47 -33,-33 -49,-71 -49,-118 0,-49 16,-88 49,-118 36,-33 80,-47 132,-47zm606 0c52,0 96,14 129,44 36,33 53,72 53,121 0,47 -17,88 -53,118 -33,31 -77,47 -129,47 -52,0 -96,-16 -129,-47 -36,-33 -53,-71 -53,-118 0,-49 17,-88 53,-118 33,-33 77,-47 129,-47zm605 0c53,0 97,14 132,44 33,33 53,72 53,121 0,47 -20,88 -53,118 -35,31 -79,47 -132,47 -52,0 -96,-16 -129,-47 -36,-33 -52,-71 -52,-118 0,-49 16,-88 52,-118 33,-33 77,-47 129,-47zm608 0c53,0 94,14 130,44 36,33 52,72 52,121 0,47 -16,88 -52,118 -36,31 -77,47 -130,47 -52,0 -96,-16 -132,-47 -33,-33 -49,-71 -49,-118 0,-49 16,-88 49,-118 36,-33 80,-47 132,-47zm67632 -41c60,0 107,16 146,52 41,36 60,80 60,135 0,52 -19,99 -60,132 -39,36 -86,52 -146,52 -58,0 -107,-16 -146,-52 -38,-36 -58,-80 -58,-132 0,-55 20,-99 58,-135 39,-36 88,-52 146,-52z"/>
  <polygon class="fil3" points="298271,490771 278317,490771 278317,400065 298271,400065 "/>
 </g>
</svg>
