<?xml version="1.0" encoding="UTF-8"?> <svg xmlns="http://www.w3.org/2000/svg" width="535" height="159" viewBox="0 0 535 159" fill="none"><path d="M535 99.4433C533.246 100.496 531.287 101.314 529.124 101.899C527.019 102.425 524.885 102.688 522.722 102.688C518.337 102.688 514.77 101.431 512.022 98.9171C509.274 96.403 507.9 92.8072 507.9 88.1298V66.2921H501.323V56.9957H507.9V44.0159H521.318V56.9957H534.123V66.3798H521.318V85.8495C521.318 89.4745 522.751 91.287 525.616 91.287C527.604 91.287 529.796 90.7023 532.194 89.533L535 99.4433Z" fill="#021E54"></path><path d="M473.725 54.4524C481.325 54.4524 487.085 56.6449 491.002 61.03C494.978 65.4151 496.966 71.525 496.966 79.3596C496.966 80.7629 496.936 81.8445 496.878 82.6046H463.025C463.785 85.5865 465.247 87.9252 467.41 89.6207C469.573 91.2578 472.175 92.0764 475.216 92.0764C477.437 92.0764 479.571 91.6671 481.618 90.8485C483.664 89.9715 485.506 88.7145 487.143 87.0774L494.247 94.2689C491.85 96.9584 488.926 99.034 485.477 100.496C482.086 101.899 478.285 102.601 474.075 102.601C469.106 102.601 464.75 101.607 461.008 99.6187C457.324 97.6308 454.46 94.8244 452.413 91.1994C450.425 87.5744 449.431 83.3939 449.431 78.658C449.431 73.8637 450.455 69.654 452.501 66.029C454.547 62.3455 457.412 59.5098 461.096 57.5219C464.779 55.4756 468.989 54.4524 473.725 54.4524ZM484.249 74.6238C484.132 71.525 483.138 69.0401 481.267 67.1691C479.396 65.2982 476.911 64.3627 473.812 64.3627C470.889 64.3627 468.433 65.2982 466.445 67.1691C464.516 68.9816 463.288 71.4665 462.762 74.6238H484.249Z" fill="#021E54"></path><path d="M432.961 102.075L421.56 82.8679L415.509 89.2701V102.075H402.003V37H415.509V72.7822L432.786 54.9788H448.134L430.856 73.133L448.923 102.075H432.961Z" fill="#021E54"></path><path d="M383.631 70.9403C380.942 67.6076 377.434 65.9413 373.107 65.9413C369.716 65.9413 366.939 67.1107 364.775 69.4494C362.671 71.7296 361.618 74.7699 361.618 78.5703C361.618 82.3707 362.671 85.4695 364.775 87.8667C366.88 90.2054 369.57 91.3748 372.844 91.3748C377.755 91.3748 381.409 89.533 383.807 85.8496L393.103 92.1641C391.115 95.4967 388.309 98.0693 384.684 99.8818C381.117 101.694 376.937 102.601 372.142 102.601C367.406 102.601 363.226 101.607 359.601 99.6187C355.976 97.6308 353.14 94.8244 351.094 91.1994C349.106 87.5744 348.112 83.3939 348.112 78.658C348.112 73.8637 349.106 69.654 351.094 66.029C353.14 62.3455 355.976 59.5098 359.601 57.5219C363.284 55.4756 367.523 54.4524 372.318 54.4524C376.82 54.4524 380.825 55.3294 384.333 57.0834C387.841 58.779 390.647 61.2054 392.752 64.3627L383.631 70.9403Z" fill="#021E54"></path><path d="M327.265 102.074V96.5492C325.686 98.5371 323.64 100.057 321.126 101.11C318.612 102.162 315.718 102.688 312.444 102.688C307.474 102.688 303.527 101.344 300.604 98.654C297.68 95.9061 296.219 92.3395 296.219 87.9544C296.219 83.5109 297.768 80.0613 300.867 77.6057C304.024 75.0916 308.468 73.8053 314.198 73.7468H327.177V72.8698C327.177 70.3557 326.33 68.4262 324.634 67.0815C322.997 65.6782 320.571 64.9766 317.355 64.9766C312.97 64.9766 308.292 66.3506 303.323 69.0986L299.113 59.8022C302.855 57.9313 306.363 56.5573 309.637 55.6803C312.911 54.8033 316.507 54.3647 320.424 54.3647C326.739 54.3647 331.621 55.8557 335.071 58.8375C338.579 61.8194 340.362 65.9706 340.42 71.2912L340.508 102.074H327.265ZM316.215 93.0411C319.021 93.0411 321.448 92.3688 323.494 91.024C325.54 89.6792 326.768 87.9837 327.177 85.9373V81.7276H316.565C313.934 81.7276 311.976 82.1661 310.689 83.0432C309.462 83.8617 308.848 85.2065 308.848 87.0774C308.848 88.8899 309.491 90.3516 310.777 91.4625C312.122 92.5149 313.934 93.0411 316.215 93.0411Z" fill="#021E54"></path><path d="M268.804 54.4524C273.189 54.4524 277.048 55.4756 280.38 57.5219C283.772 59.5098 286.373 62.3455 288.186 66.029C290.057 69.7125 290.992 73.9514 290.992 78.7457C290.992 83.4816 290.086 87.6621 288.274 91.2871C286.461 94.8536 283.888 97.6308 280.556 99.6187C277.282 101.607 273.452 102.601 269.067 102.601C265.793 102.601 262.869 101.987 260.297 100.759C257.783 99.4725 255.649 97.6308 253.895 95.2336V119.088H240.388V54.8909H253.895V61.8193C255.59 59.4222 257.695 57.6097 260.209 56.3818C262.782 55.0955 265.647 54.4524 268.804 54.4524ZM265.647 91.3748C269.096 91.3748 271.903 90.1762 274.066 87.779C276.229 85.3233 277.311 82.1661 277.311 78.3072C277.311 74.5068 276.229 71.408 274.066 69.0109C271.903 66.5552 269.096 65.3274 265.647 65.3274C262.197 65.3274 259.361 66.5552 257.139 69.0109C254.976 71.408 253.895 74.5068 253.895 78.3072C253.895 82.2246 254.976 85.3818 257.139 87.779C259.361 90.1762 262.197 91.3748 265.647 91.3748Z" fill="#021E54"></path><path d="M205.828 70.7651H228.455V79.7107H205.828V70.7651Z" fill="#021E54"></path><path d="M149 40.6829H195.745V52.1718H162.857V65.5024H192.412V76.9913H162.857V90.5851H196.71V102.074H149V40.6829Z" fill="#BB0503"></path><path d="M140.058 22.5606L9.87027 66.0924L44.7499 87.2096L113.092 44.0331L57.6273 95.0064L57.6606 95.0266L57.6192 95.0048L51.4052 127.368L77.1801 106.844L101.959 121.846L140.058 22.5606Z" fill="#C40300"></path><path d="M441.349 131V152.569H439.401V149.08C438.82 150.224 438.006 151.115 436.959 151.755C435.913 152.375 434.692 152.685 433.297 152.685C431.863 152.685 430.584 152.356 429.46 151.697C428.336 151.038 427.464 150.117 426.844 148.935C426.223 147.753 425.913 146.416 425.913 144.924C425.913 143.432 426.223 142.104 426.844 140.941C427.483 139.779 428.355 138.868 429.46 138.209C430.584 137.55 431.853 137.221 433.268 137.221C434.663 137.221 435.884 137.54 436.93 138.18C437.996 138.819 438.82 139.711 439.401 140.854V131H441.349ZM433.646 150.999C434.75 150.999 435.738 150.747 436.61 150.243C437.483 149.72 438.161 149.003 438.645 148.092C439.149 147.181 439.401 146.145 439.401 144.982C439.401 143.819 439.149 142.782 438.645 141.872C438.161 140.941 437.483 140.215 436.61 139.691C435.738 139.168 434.75 138.907 433.646 138.907C432.541 138.907 431.553 139.168 430.681 139.691C429.808 140.215 429.121 140.941 428.617 141.872C428.113 142.782 427.861 143.819 427.861 144.982C427.861 146.145 428.103 147.181 428.588 148.092C429.091 149.003 429.779 149.72 430.651 150.243C431.543 150.747 432.541 150.999 433.646 150.999Z" fill="black"></path><path d="M419.875 137.337H421.823V152.568H419.875V137.337ZM420.864 131.581C421.251 131.581 421.571 131.717 421.823 131.988C422.075 132.24 422.201 132.56 422.201 132.947C422.201 133.335 422.065 133.664 421.794 133.936C421.542 134.207 421.232 134.343 420.864 134.343C420.476 134.343 420.147 134.207 419.875 133.936C419.623 133.664 419.497 133.335 419.497 132.947C419.497 132.56 419.623 132.24 419.875 131.988C420.147 131.717 420.476 131.581 420.864 131.581Z" fill="black"></path><path d="M408.428 137.279C409.843 137.279 411.102 137.608 412.207 138.267C413.331 138.906 414.203 139.817 414.823 140.999C415.443 142.162 415.753 143.489 415.753 144.982C415.753 146.454 415.443 147.772 414.823 148.935C414.203 150.098 413.341 151.008 412.236 151.667C411.131 152.307 409.872 152.627 408.457 152.627C407.062 152.627 405.841 152.317 404.795 151.696C403.748 151.057 402.934 150.175 402.353 149.051V158.208H400.405V137.337H402.353V140.854C402.915 139.73 403.719 138.858 404.765 138.238C405.831 137.598 407.052 137.279 408.428 137.279ZM408.079 150.941C409.164 150.941 410.143 150.689 411.015 150.185C411.887 149.662 412.565 148.945 413.05 148.034C413.534 147.123 413.777 146.086 413.777 144.924C413.777 143.78 413.534 142.753 413.05 141.842C412.565 140.931 411.887 140.224 411.015 139.72C410.143 139.197 409.164 138.935 408.079 138.935C406.975 138.935 405.986 139.197 405.114 139.72C404.262 140.224 403.583 140.931 403.079 141.842C402.595 142.753 402.353 143.78 402.353 144.924C402.353 146.086 402.595 147.123 403.079 148.034C403.564 148.945 404.242 149.662 405.114 150.185C405.986 150.689 406.975 150.941 408.079 150.941Z" fill="black"></path><path d="M393.132 152.568L393.103 150.01C392.502 150.902 391.717 151.57 390.748 152.016C389.779 152.443 388.665 152.656 387.405 152.656C386.378 152.656 385.467 152.462 384.673 152.074C383.898 151.667 383.297 151.115 382.871 150.417C382.444 149.72 382.231 148.935 382.231 148.063C382.231 146.745 382.735 145.708 383.743 144.953C384.77 144.197 386.175 143.819 387.958 143.819H393.074V142.656C393.074 141.455 392.715 140.525 391.998 139.866C391.281 139.207 390.235 138.877 388.859 138.877C387.231 138.877 385.593 139.488 383.946 140.709L383.074 139.371C384.101 138.654 385.08 138.131 386.01 137.802C386.94 137.453 388.006 137.279 389.208 137.279C391.049 137.279 392.473 137.744 393.481 138.674C394.488 139.585 395.002 140.854 395.021 142.482L395.05 152.568H393.132ZM387.754 151.028C389.111 151.028 390.254 150.718 391.184 150.098C392.134 149.458 392.773 148.567 393.103 147.423V145.33H388.19C386.853 145.33 385.836 145.553 385.138 145.999C384.44 146.445 384.092 147.113 384.092 148.005C384.092 148.916 384.421 149.652 385.08 150.214C385.758 150.757 386.65 151.028 387.754 151.028Z" fill="black"></path><path d="M376.311 152.569L371.922 145.941C371.302 145.98 370.827 145.999 370.498 145.999H364.916V152.569H362.911V132.25H370.498C373.036 132.25 374.993 132.841 376.369 134.023C377.765 135.186 378.462 136.843 378.462 138.994C378.462 140.68 378.055 142.085 377.241 143.209C376.428 144.333 375.265 145.118 373.753 145.563L378.637 152.569H376.311ZM370.498 144.197C372.435 144.197 373.928 143.761 374.974 142.889C376.021 141.998 376.544 140.719 376.544 139.052C376.544 137.424 376.021 136.184 374.974 135.331C373.928 134.479 372.435 134.052 370.498 134.052H364.916V144.197H370.498Z" fill="black"></path><path d="M358.448 152.83C357.576 151.958 356.423 150.824 354.989 149.429C354.059 150.476 353.051 151.28 351.966 151.842C350.88 152.384 349.766 152.656 348.623 152.656C347.538 152.656 346.54 152.414 345.629 151.929C344.718 151.445 343.991 150.786 343.449 149.952C342.925 149.1 342.664 148.16 342.664 147.133C342.664 145.796 343.071 144.691 343.885 143.819C344.718 142.947 345.881 142.114 347.373 141.319C346.656 140.389 346.113 139.527 345.745 138.732C345.396 137.937 345.222 137.172 345.222 136.436C345.222 135.622 345.425 134.895 345.832 134.256C346.239 133.597 346.811 133.083 347.547 132.715C348.303 132.347 349.156 132.163 350.105 132.163C351.462 132.163 352.566 132.54 353.419 133.296C354.272 134.033 354.698 134.992 354.698 136.174C354.698 137.027 354.466 137.782 354 138.441C353.535 139.1 352.964 139.662 352.285 140.127C351.607 140.573 350.706 141.096 349.582 141.697C350.59 142.918 352.324 144.739 354.785 147.162C355.58 145.98 356.297 144.623 356.936 143.092L358.303 144.081C357.585 145.708 356.791 147.104 355.919 148.266L359.494 151.813L358.448 152.83ZM346.85 136.436C346.85 137.579 347.47 138.974 348.71 140.621C349.679 140.118 350.454 139.672 351.035 139.284C351.636 138.897 352.121 138.451 352.489 137.947C352.876 137.424 353.07 136.823 353.07 136.145C353.07 135.35 352.799 134.711 352.256 134.226C351.714 133.723 350.997 133.471 350.105 133.471C349.136 133.471 348.351 133.752 347.751 134.314C347.15 134.876 346.85 135.583 346.85 136.436ZM348.681 151.115C350.503 151.115 352.237 150.185 353.884 148.325C351.229 145.708 349.349 143.741 348.245 142.424C347.005 143.121 346.045 143.819 345.367 144.517C344.689 145.195 344.35 146.028 344.35 147.016C344.35 148.199 344.766 149.177 345.6 149.952C346.433 150.728 347.46 151.115 348.681 151.115Z" fill="black"></path><path d="M338.172 137.337V152.568H336.195V148.935C335.691 150.136 334.936 151.047 333.928 151.667C332.94 152.287 331.738 152.607 330.323 152.627C328.521 152.627 327.106 152.103 326.079 151.057C325.072 149.991 324.568 148.538 324.568 146.697V137.337H326.544V146.232C326.544 147.666 326.932 148.79 327.707 149.603C328.502 150.398 329.587 150.795 330.963 150.795C332.591 150.776 333.87 150.224 334.8 149.138C335.73 148.034 336.195 146.59 336.195 144.807V137.337H338.172Z" fill="black"></path><path d="M317.288 131H319.236V152.569H317.288V131Z" fill="black"></path><path d="M305.695 137.279C307.11 137.279 308.37 137.608 309.474 138.267C310.598 138.906 311.47 139.817 312.091 140.999C312.711 142.162 313.021 143.489 313.021 144.982C313.021 146.454 312.711 147.772 312.091 148.935C311.47 150.098 310.608 151.008 309.503 151.667C308.399 152.307 307.139 152.627 305.725 152.627C304.329 152.627 303.108 152.317 302.062 151.696C301.015 151.057 300.202 150.175 299.62 149.051V158.208H297.673V137.337H299.62V140.854C300.182 139.73 300.986 138.858 302.033 138.238C303.099 137.598 304.32 137.279 305.695 137.279ZM305.347 150.941C306.432 150.941 307.411 150.689 308.283 150.185C309.155 149.662 309.833 148.945 310.317 148.034C310.802 147.123 311.044 146.086 311.044 144.924C311.044 143.78 310.802 142.753 310.317 141.842C309.833 140.931 309.155 140.224 308.283 139.72C307.411 139.197 306.432 138.935 305.347 138.935C304.242 138.935 303.254 139.197 302.382 139.72C301.529 140.224 300.851 140.931 300.347 141.842C299.862 142.753 299.62 143.78 299.62 144.924C299.62 146.086 299.862 147.123 300.347 148.034C300.831 148.945 301.51 149.662 302.382 150.185C303.254 150.689 304.242 150.941 305.347 150.941Z" fill="black"></path><path d="M286.6 137.279C288.402 137.279 289.807 137.802 290.815 138.848C291.822 139.895 292.326 141.348 292.326 143.208V152.568H290.35V143.674C290.35 142.22 289.952 141.096 289.158 140.302C288.383 139.488 287.307 139.081 285.931 139.081C284.303 139.12 283.024 139.682 282.094 140.767C281.183 141.852 280.728 143.286 280.728 145.069V152.568H278.751V143.674C278.751 142.22 278.354 141.096 277.56 140.302C276.784 139.488 275.709 139.081 274.333 139.081C272.705 139.12 271.426 139.682 270.496 140.767C269.566 141.852 269.101 143.286 269.101 145.069V152.568H267.153V137.337H269.101V140.912C269.605 139.711 270.351 138.809 271.339 138.209C272.347 137.608 273.568 137.298 275.002 137.279C276.455 137.279 277.657 137.637 278.606 138.354C279.575 139.071 280.215 140.079 280.525 141.377C280.99 140.021 281.736 139.003 282.763 138.325C283.809 137.647 285.088 137.298 286.6 137.279Z" fill="black"></path><path d="M259.545 137.337H261.493V152.568H259.545V137.337ZM260.534 131.581C260.921 131.581 261.241 131.717 261.493 131.988C261.745 132.24 261.871 132.56 261.871 132.947C261.871 133.335 261.735 133.664 261.464 133.936C261.212 134.207 260.902 134.343 260.534 134.343C260.146 134.343 259.817 134.207 259.545 133.936C259.294 133.664 259.168 133.335 259.168 132.947C259.168 132.56 259.294 132.24 259.545 131.988C259.817 131.717 260.146 131.581 260.534 131.581Z" fill="black"></path><path d="M253.488 135.564C252.654 135.04 251.744 134.643 250.755 134.372C249.767 134.081 248.837 133.936 247.965 133.936C246.569 133.936 245.445 134.217 244.593 134.779C243.759 135.321 243.343 136.067 243.343 137.017C243.343 137.85 243.575 138.529 244.04 139.052C244.506 139.575 245.077 139.992 245.756 140.302C246.434 140.592 247.364 140.922 248.546 141.29C249.922 141.697 251.027 142.104 251.86 142.511C252.713 142.899 253.43 143.47 254.011 144.226C254.612 144.982 254.912 145.98 254.912 147.22C254.912 148.305 254.602 149.265 253.982 150.098C253.381 150.931 252.528 151.58 251.424 152.045C250.319 152.491 249.05 152.714 247.616 152.714C246.201 152.714 244.816 152.433 243.459 151.871C242.122 151.309 240.969 150.563 240 149.633L240.93 147.976C241.841 148.867 242.897 149.565 244.099 150.069C245.3 150.573 246.482 150.825 247.645 150.825C249.195 150.825 250.426 150.514 251.337 149.894C252.247 149.255 252.703 148.402 252.703 147.336C252.703 146.484 252.47 145.786 252.005 145.243C251.54 144.701 250.968 144.284 250.29 143.993C249.612 143.703 248.662 143.364 247.441 142.976C246.066 142.55 244.961 142.152 244.128 141.784C243.294 141.397 242.587 140.835 242.006 140.098C241.424 139.343 241.134 138.364 241.134 137.162C241.134 136.135 241.424 135.234 242.006 134.459C242.587 133.684 243.401 133.093 244.447 132.686C245.494 132.26 246.705 132.046 248.081 132.046C249.186 132.046 250.29 132.211 251.395 132.541C252.519 132.87 253.507 133.306 254.36 133.849L253.488 135.564Z" fill="black"></path></svg> 