<?xml version="1.0" encoding="UTF-8"?>
<svg xmlns="http://www.w3.org/2000/svg" xmlns:xlink="http://www.w3.org/1999/xlink" width="78pt" height="45pt" viewBox="0 0 78 45" version="1.1">
<g id="surface1">
<path style=" stroke:none;fill-rule:evenodd;fill:rgb(14%,90%,86%);fill-opacity:1;" d="M 51.070312 45 L 40.511719 45 L 40.511719 0 L 51.070312 0 Z M 36.742188 22.554688 C 36.742188 32.796875 28.515625 41.085938 18.382812 41.085938 C 8.246094 41.085938 0.00390625 32.785156 0.00390625 22.554688 C 0.00390625 12.324219 8.230469 4.023438 18.367188 4.023438 C 28.503906 4.023438 36.742188 12.3125 36.742188 22.554688 Z M 23.921875 22.554688 C 23.921875 21.070312 23.339844 19.644531 22.296875 18.59375 C 21.257812 17.542969 19.84375 16.953125 18.375 16.957031 C 16.902344 16.953125 15.488281 17.542969 14.449219 18.59375 C 13.410156 19.644531 12.824219 21.070312 12.824219 22.554688 C 12.824219 24.039062 13.410156 25.464844 14.449219 26.515625 C 15.488281 27.566406 16.902344 28.152344 18.371094 28.152344 C 19.84375 28.15625 21.257812 27.566406 22.296875 26.515625 C 23.339844 25.464844 23.921875 24.039062 23.921875 22.554688 Z M 77.871094 11.304688 L 70.851562 11.304688 L 66.734375 15.457031 L 62.613281 11.304688 L 55.59375 11.304688 L 55.59375 18.503906 L 59.660156 22.601562 L 55.59375 26.699219 L 55.59375 33.804688 L 62.722656 33.804688 L 66.746094 29.746094 L 70.769531 33.804688 L 77.898438 33.804688 L 77.898438 26.699219 L 73.832031 22.601562 L 77.898438 18.503906 L 77.898438 11.304688 L 77.867188 11.304688 Z M 77.871094 11.304688 "/>
</g>
</svg>
