<?xml version="1.0" standalone="no"?>
<!DOCTYPE svg PUBLIC "-//W3C//DTD SVG 20010904//EN"
 "http://www.w3.org/TR/2001/REC-SVG-20010904/DTD/svg10.dtd">
<svg version="1.0" xmlns="http://www.w3.org/2000/svg"
 width="1501.000000pt" height="1522.000000pt" viewBox="0 0 1501.000000 1522.000000"
 preserveAspectRatio="xMidYMid meet">

<g transform="translate(0.000000,1522.000000) scale(0.100000,-0.100000)"
fill="#000000" stroke="none">
<path d="M4111 15178 c-25 -82 -190 -594 -251 -783 -38 -115 -114 -352 -170
-525 -56 -173 -257 -792 -447 -1375 -190 -583 -430 -1321 -533 -1640 -104
-319 -297 -913 -429 -1320 -191 -585 -238 -742 -229 -751 7 -6 218 -160 468
-341 1484 -1076 2097 -1520 2355 -1708 248 -180 2433 -1763 2581 -1868 l51
-37 1179 855 c649 470 1323 960 1498 1088 176 127 376 273 445 323 70 50 343
249 609 442 265 193 591 430 725 526 423 306 971 707 986 721 11 11 -118 417
-832 2612 -465 1429 -931 2866 -1036 3193 -106 327 -194 601 -196 608 -4 9
-689 12 -3384 12 l-3379 0 -11 -32z m1404 -1163 c325 -280 622 -536 660 -570
39 -34 105 -92 149 -129 43 -37 116 -102 162 -144 l83 -78 -19 -31 c-10 -17
-34 -52 -54 -78 -20 -26 -34 -50 -31 -53 7 -8 45 39 39 49 -3 5 2 6 10 3 11
-4 16 0 16 11 0 9 5 13 10 10 6 -3 10 -1 10 4 0 13 52 15 66 2 5 -4 30 -16 56
-26 26 -10 45 -21 43 -26 -3 -4 4 -10 15 -14 11 -3 20 -12 20 -19 0 -7 16 -20
35 -29 25 -12 35 -23 35 -39 0 -15 3 -19 8 -11 6 9 15 6 35 -11 15 -13 27 -28
27 -35 0 -6 4 -11 10 -11 15 0 50 -33 44 -42 -3 -4 -1 -8 5 -8 7 0 8 -23 4
-65 -5 -56 -4 -65 11 -65 11 0 16 -9 16 -33 0 -18 4 -37 9 -43 5 -5 11 -22 14
-39 3 -24 4 -22 6 12 0 23 -4 45 -9 48 -6 4 -8 11 -4 16 3 5 0 43 -6 85 -6 42
-10 77 -8 79 4 4 88 -67 141 -117 16 -16 31 -28 34 -28 3 0 15 -10 27 -23 11
-12 31 -30 44 -38 19 -14 43 -35 159 -137 15 -12 48 -41 75 -64 27 -22 46 -43
44 -46 -7 -6 24 -36 40 -38 8 -1 12 2 8 7 -3 5 -1 9 4 9 15 0 52 36 52 51 0
11 2 11 10 -1 6 -10 10 -11 10 -2 0 6 7 12 15 12 9 0 15 9 15 24 0 18 6 25 23
28 13 2 28 15 37 35 10 22 22 33 37 33 15 0 23 7 25 22 2 13 11 24 23 26 25 5
56 32 49 43 -3 5 6 9 20 9 17 0 26 6 26 16 0 8 5 12 10 9 6 -3 10 -1 10 4 0 6
7 11 15 11 8 0 15 5 15 11 0 14 26 39 40 39 7 0 9 7 6 16 -3 8 -2 12 3 9 6 -3
14 3 20 12 21 38 20 1 -3 -148 -13 -85 -27 -174 -30 -199 -4 -25 -11 -74 -16
-110 -12 -82 -12 -90 0 -90 6 0 10 23 10 50 0 28 5 50 10 50 6 0 10 23 10 50
0 38 4 50 15 50 10 0 15 10 15 28 0 15 9 63 21 107 11 44 20 86 21 93 1 6 5
12 10 12 5 0 6 41 3 90 -3 57 -1 90 5 90 5 0 10 7 10 15 0 8 5 15 11 15 11 0
39 25 39 35 0 9 27 35 37 35 4 0 17 11 27 25 10 14 25 25 33 25 17 0 43 24 43
39 0 6 7 11 15 11 8 0 15 4 15 9 0 5 9 13 20 16 11 3 20 13 20 21 0 11 15 14
60 14 41 0 60 4 60 13 0 8 3 7 10 -3 5 -8 12 -12 15 -8 4 4 -5 24 -19 45 -14
20 -26 43 -26 49 0 7 17 26 38 44 76 66 158 137 241 210 81 71 602 523 880
764 69 59 155 134 191 166 226 199 334 289 340 283 9 -11 33 -81 143 -418 152
-465 156 -477 1047 -3240 468 -1452 853 -2647 856 -2655 5 -13 3 -13 -9 0 -12
12 -194 248 -541 700 -27 36 -102 133 -166 215 -64 83 -253 328 -420 545 -707
919 -849 1101 -856 1098 -3 -2 -177 -511 -386 -1133 -208 -621 -390 -1161
-403 -1200 -13 -38 -23 -59 -22 -45 2 14 6 31 10 38 5 7 4 12 -2 12 -6 0 -11
11 -11 24 0 14 -5 28 -10 31 -6 4 -8 11 -4 16 3 6 -3 13 -15 16 -14 3 -21 13
-21 29 0 13 -4 24 -10 24 -5 0 -10 16 -10 35 0 24 -5 35 -15 35 -8 0 -15 5
-15 11 0 5 4 8 9 4 5 -3 12 -1 16 5 3 5 0 10 -8 10 -16 0 -30 27 -21 41 3 5 0
9 -5 9 -6 0 -11 16 -11 35 0 26 -3 33 -15 29 -11 -5 -15 1 -15 18 0 14 -3 28
-7 32 -8 8 -10 13 -12 46 -1 13 -6 17 -16 14 -12 -5 -15 3 -15 35 0 23 -4 41
-9 41 -8 0 -14 16 -30 90 -4 19 -13 34 -19 32 -11 -2 -16 11 -13 31 0 4 -4 7
-10 7 -6 0 -8 -8 -5 -17 3 -10 57 -202 121 -428 64 -225 119 -418 121 -427 5
-17 -87 -18 -1830 -18 -1193 0 -1836 3 -1836 10 0 5 47 175 104 377 118 415
115 401 101 405 -5 2 -11 -7 -13 -19 -2 -13 -8 -23 -13 -23 -5 0 -9 -9 -9 -19
0 -11 -6 -32 -14 -48 -20 -39 -36 -95 -36 -122 0 -16 -4 -21 -15 -17 -11 4
-15 -1 -15 -19 0 -14 -4 -25 -10 -25 -5 0 -10 -22 -10 -50 0 -27 -4 -50 -9
-50 -5 0 -11 -12 -13 -27 -2 -16 -8 -27 -15 -26 -8 2 -13 -7 -13 -21 0 -14 -7
-31 -15 -40 -8 -8 -15 -21 -15 -30 0 -8 -4 -18 -10 -21 -6 -3 -10 -17 -10 -31
0 -13 -4 -24 -9 -24 -5 0 -11 -8 -14 -17 -2 -11 -7 -1 -12 22 -4 22 -11 45
-16 50 -8 11 -755 2246 -761 2278 -6 37 129 210 -1841 -2345 -88 -115 -162
-207 -163 -205 -2 2 32 113 75 248 44 134 145 449 226 699 81 250 171 532 202
625 30 94 126 391 213 660 87 270 260 805 385 1190 124 385 267 826 316 980
50 154 133 408 184 565 52 157 107 326 123 375 16 50 93 289 172 533 l144 442
25 -23 c14 -14 292 -253 616 -532z"/>
<path d="M8523 12980 c4 -8 10 -23 13 -32 4 -10 10 -18 15 -18 5 0 18 -15 29
-32 11 -18 20 -27 20 -19 0 14 -38 70 -69 101 -13 13 -13 13 -8 0z"/>
<path d="M6416 12881 c-4 -5 3 -7 14 -4 23 6 26 13 6 13 -8 0 -17 -4 -20 -9z"/>
<path d="M8610 12866 c0 -19 28 -52 37 -43 3 3 -4 18 -16 33 -16 20 -21 23
-21 10z"/>
<path d="M6386 12845 c-3 -8 -1 -15 4 -15 6 0 10 7 10 15 0 8 -2 15 -4 15 -2
0 -6 -7 -10 -15z"/>
<path d="M8660 12800 c0 -5 5 -10 11 -10 5 0 7 5 4 10 -3 6 -8 10 -11 10 -2 0
-4 -4 -4 -10z"/>
<path d="M8710 12736 c0 -9 5 -16 10 -16 6 0 10 -7 10 -15 0 -8 5 -15 10 -15
15 0 12 9 -10 37 -15 19 -20 21 -20 9z"/>
<path d="M8760 12667 c0 -21 25 -50 40 -45 5 2 -1 17 -15 33 -19 24 -24 26
-25 12z"/>
<path d="M6236 12643 c-6 -14 -5 -15 5 -6 7 7 10 15 7 18 -3 3 -9 -2 -12 -12z"/>
<path d="M6199 12593 c-13 -16 -12 -17 4 -4 9 7 17 15 17 17 0 8 -8 3 -21 -13z"/>
<path d="M8810 12602 c0 -7 5 -12 10 -12 6 0 10 -8 10 -19 0 -10 11 -27 25
-37 14 -10 25 -24 25 -31 0 -7 6 -13 14 -13 8 0 17 -8 19 -17 3 -13 5 -14 6
-3 1 17 -57 86 -70 83 -4 -2 -6 3 -3 10 2 7 -4 22 -16 32 -11 10 -20 13 -20 7z"/>
<path d="M6165 12560 c-3 -5 -1 -10 4 -10 6 0 11 5 11 10 0 6 -2 10 -4 10 -3
0 -8 -4 -11 -10z"/>
<path d="M6116 12495 c-3 -8 -1 -15 4 -15 6 0 10 7 10 15 0 8 -2 15 -4 15 -2
0 -6 -7 -10 -15z"/>
<path d="M8927 12453 c-3 -5 3 -16 14 -23 10 -8 19 -18 19 -23 0 -10 26 -37
35 -37 8 0 -9 29 -39 64 -13 15 -26 24 -29 19z"/>
<path d="M6990 12446 c0 -2 7 -6 15 -10 8 -3 15 -1 15 4 0 6 -7 10 -15 10 -8
0 -15 -2 -15 -4z"/>
<path d="M7023 12375 c0 -22 2 -30 4 -17 2 12 2 30 0 40 -3 9 -5 -1 -4 -23z"/>
<path d="M6015 12360 c-3 -5 -1 -10 4 -10 6 0 11 5 11 10 0 6 -2 10 -4 10 -3
0 -8 -4 -11 -10z"/>
<path d="M5983 12318 c-19 -25 -24 -38 -14 -38 6 0 11 6 11 14 0 8 6 16 13 19
6 2 9 7 6 11 -3 4 -11 1 -16 -6z"/>
<path d="M9030 12321 c0 -6 4 -13 10 -16 6 -3 7 1 4 9 -7 18 -14 21 -14 7z"/>
<path d="M9060 12286 c0 -4 7 -14 15 -22 8 -9 15 -11 15 -6 0 5 -7 15 -15 22
-8 7 -15 9 -15 6z"/>
<path d="M5916 12235 c-3 -8 -1 -15 4 -15 6 0 10 7 10 15 0 8 -2 15 -4 15 -2
0 -6 -7 -10 -15z"/>
<path d="M9100 12231 c0 -10 28 -41 36 -41 2 0 -3 11 -12 25 -17 26 -24 31
-24 16z"/>
<path d="M9146 12165 c4 -8 10 -15 15 -15 4 0 6 7 3 15 -4 8 -10 15 -15 15 -4
0 -6 -7 -3 -15z"/>
<path d="M5816 12103 c-6 -14 -5 -15 5 -6 7 7 10 15 7 18 -3 3 -9 -2 -12 -12z"/>
<path d="M9200 12089 c7 -11 14 -19 16 -16 7 7 -7 37 -17 37 -6 0 -5 -9 1 -21z"/>
<path d="M5782 12060 c-17 -27 -15 -35 4 -16 8 9 14 21 12 26 -2 6 -9 1 -16
-10z"/>
<path d="M9250 12030 c0 -5 5 -10 11 -10 5 0 7 5 4 10 -3 6 -8 10 -11 10 -2 0
-4 -4 -4 -10z"/>
<path d="M9300 11971 c0 -6 4 -13 10 -16 6 -3 7 1 4 9 -7 18 -14 21 -14 7z"/>
<path d="M9342 11916 c7 -8 15 -12 17 -11 5 6 -10 25 -20 25 -5 0 -4 -6 3 -14z"/>
<path d="M5621 11844 c0 -11 3 -14 6 -6 3 7 2 16 -1 19 -3 4 -6 -2 -5 -13z"/>
<path d="M9400 11836 c0 -9 5 -16 10 -16 6 0 10 4 10 9 0 6 -4 13 -10 16 -5 3
-10 -1 -10 -9z"/>
<path d="M9450 11773 c0 -13 5 -23 10 -23 13 0 13 11 0 30 -8 12 -10 11 -10
-7z"/>
<path d="M9500 11710 c0 -5 5 -10 11 -10 5 0 7 5 4 10 -3 6 -8 10 -11 10 -2 0
-4 -4 -4 -10z"/>
<path d="M9550 11645 c0 -8 4 -15 10 -15 5 0 7 7 4 15 -4 8 -8 15 -10 15 -2 0
-4 -7 -4 -15z"/>
<path d="M9650 11515 c0 -8 4 -15 10 -15 5 0 7 7 4 15 -4 8 -8 15 -10 15 -2 0
-4 -7 -4 -15z"/>
<path d="M9730 11410 c0 -5 5 -10 11 -10 5 0 7 5 4 10 -3 6 -8 10 -11 10 -2 0
-4 -4 -4 -10z"/>
<path d="M9816 11295 c4 -8 10 -15 15 -15 4 0 6 7 3 15 -4 8 -10 15 -15 15 -4
0 -6 -7 -3 -15z"/>
<path d="M4995 11040 c-3 -5 -1 -10 4 -10 6 0 11 5 11 10 0 6 -2 10 -4 10 -3
0 -8 -4 -11 -10z"/>
<path d="M10070 10970 c0 -5 5 -10 11 -10 5 0 7 5 4 10 -3 6 -8 10 -11 10 -2
0 -4 -4 -4 -10z"/>
<path d="M10170 10840 c0 -5 5 -10 11 -10 5 0 7 5 4 10 -3 6 -8 10 -11 10 -2
0 -4 -4 -4 -10z"/>
<path d="M9086 9223 c9 -38 14 -42 14 -10 0 14 -5 29 -10 32 -7 4 -8 -3 -4
-22z"/>
<path d="M5901 9124 c0 -11 3 -14 6 -6 3 7 2 16 -1 19 -3 4 -6 -2 -5 -13z"/>
<path d="M756 4130 c-334 -53 -558 -231 -632 -501 -24 -89 -24 -263 0 -344 29
-97 65 -156 135 -225 115 -112 272 -180 618 -265 217 -54 322 -94 357 -136 59
-70 38 -156 -49 -199 -46 -23 -61 -25 -185 -25 -106 1 -154 6 -225 23 -107 27
-262 99 -369 172 -43 28 -81 48 -85 43 -4 -4 -78 -92 -164 -195 l-156 -186 42
-34 c250 -203 594 -318 952 -318 198 0 355 34 505 108 239 117 375 356 357
627 -12 178 -78 304 -211 402 -129 95 -261 147 -572 223 -314 77 -374 111
-374 212 0 45 4 54 35 83 46 44 113 59 229 52 159 -10 334 -71 488 -170 l56
-35 145 206 c108 152 143 210 136 219 -20 23 -171 115 -245 149 -89 40 -210
77 -324 99 -100 19 -379 28 -464 15z"/>
<path d="M2743 4083 c-8 -21 -209 -497 -445 -1058 -236 -561 -432 -1026 -435
-1032 -4 -10 60 -13 303 -13 l309 0 75 190 75 190 411 0 412 0 75 -187 75
-188 316 -3 316 -2 -15 37 c-9 21 -212 503 -452 1071 l-437 1032 -283 0 -284
0 -16 -37z m413 -958 c58 -148 109 -278 111 -287 5 -17 -11 -18 -232 -18 -186
0 -236 3 -232 13 167 419 232 576 238 570 4 -5 56 -129 115 -278z"/>
<path d="M11711 4103 c-13 -25 -891 -2112 -891 -2118 0 -3 138 -4 307 -3 l307
3 74 188 74 187 412 0 413 0 74 -190 74 -189 317 -1 317 0 -29 68 c-16 37
-219 518 -452 1069 l-423 1003 -282 0 c-259 0 -283 -1 -292 -17z m402 -978
c58 -148 109 -278 112 -287 7 -17 -8 -18 -229 -18 -130 0 -236 2 -236 5 0 20
234 585 240 578 4 -4 55 -129 113 -278z"/>
<path d="M4360 3040 l0 -1060 290 0 290 0 0 601 c0 330 4 598 8 595 5 -3 128
-187 273 -410 145 -222 266 -403 270 -400 4 2 128 189 276 415 l268 412 3
-607 2 -606 295 0 295 0 0 1060 0 1060 -317 -2 -316 -3 -244 -395 c-134 -217
-247 -401 -252 -408 -4 -8 -98 136 -258 395 l-251 408 -316 3 -316 2 0 -1060z"/>
<path d="M6930 3040 l0 -1060 860 0 860 0 0 250 0 250 -570 0 -570 0 0 165 0
165 510 0 510 0 0 235 0 235 -510 0 -510 0 0 160 0 160 563 2 562 3 3 248 2
247 -855 0 -855 0 0 -1060z"/>
<path d="M8880 3040 l0 -1061 528 4 c487 3 534 5 617 24 497 113 798 420 866
883 18 124 7 322 -25 444 -100 385 -383 638 -824 738 -92 20 -126 22 -629 25
l-533 4 0 -1061z m1024 520 c237 -60 378 -230 393 -475 15 -240 -81 -426 -269
-518 -105 -51 -196 -67 -393 -67 l-165 0 0 540 0 540 178 0 c145 0 193 -4 256
-20z"/>
<path d="M12800 4095 c0 -2 180 -300 400 -661 l400 -656 0 -399 0 -399 295 0
295 0 0 398 0 398 403 659 404 660 -326 3 c-267 2 -328 0 -336 -11 -6 -8 -105
-181 -220 -385 -154 -271 -213 -367 -220 -358 -5 7 -104 180 -219 385 l-210
371 -333 0 c-183 0 -333 -2 -333 -5z"/>
<path d="M3790 895 l0 -615 59 0 60 0 3 282 c3 274 4 285 27 336 72 159 289
204 408 86 67 -68 73 -101 73 -426 l0 -278 65 0 65 0 0 263 c0 144 -5 295 -10
334 -26 202 -183 315 -390 282 -78 -12 -135 -43 -188 -104 -22 -25 -42 -45
-46 -45 -3 0 -6 113 -6 250 l0 250 -60 0 -60 0 0 -615z"/>
<path d="M2171 1328 c-12 -73 -25 -141 -27 -150 -5 -16 -19 -18 -115 -18
l-109 0 0 -55 0 -55 100 0 c74 0 100 -3 100 -13 0 -13 -46 -287 -55 -324 -5
-22 -10 -23 -105 -23 l-100 0 0 -55 0 -55 90 0 c50 0 90 -3 90 -6 0 -10 -39
-245 -45 -271 -5 -22 -2 -23 53 -23 l59 0 23 137 c12 76 25 143 27 150 4 10
44 13 164 13 87 0 159 -3 159 -6 0 -10 -39 -245 -45 -272 -5 -21 -2 -22 53
-22 l58 0 23 138 c13 75 26 143 28 149 4 9 35 13 109 13 l104 0 0 55 0 55 -95
0 c-80 0 -95 2 -95 16 0 15 44 274 55 322 5 21 10 22 105 22 l100 0 0 55 0 55
-90 0 c-68 0 -90 3 -90 13 0 14 36 224 45 265 5 21 2 22 -53 22 l-58 0 -23
-132 c-12 -73 -25 -141 -27 -150 -5 -16 -22 -18 -165 -18 -104 0 -159 4 -159
10 0 12 37 229 45 268 5 21 2 22 -53 22 l-58 0 -23 -132z m389 -284 c0 -9 -49
-306 -55 -331 -5 -23 -8 -23 -165 -23 -115 0 -160 3 -160 12 0 12 47 285 55
326 5 22 8 22 165 22 88 0 160 -3 160 -6z"/>
<path d="M3150 1280 l0 -130 -60 0 -60 0 0 -55 0 -55 60 0 60 0 0 -280 c0
-156 5 -300 10 -328 13 -60 60 -118 114 -143 52 -23 190 -26 241 -5 34 15 35
17 35 69 l0 55 -42 -15 c-56 -19 -140 -13 -176 14 -50 37 -52 48 -52 351 l0
282 135 0 135 0 0 55 0 55 -135 0 -135 0 0 130 0 130 -65 0 -65 0 0 -130z"/>
<path d="M5122 1160 c-224 -33 -382 -270 -343 -519 38 -247 229 -398 474 -378
94 8 145 27 221 81 95 67 96 70 50 110 l-38 33 -59 -43 c-131 -97 -297 -99
-415 -6 -43 34 -97 126 -107 185 l-7 37 347 0 348 0 -6 88 c-7 110 -27 174
-77 250 -83 124 -228 185 -388 162z m184 -128 c78 -40 154 -160 154 -242 l0
-30 -281 0 -281 0 6 38 c19 106 102 214 190 246 56 21 159 15 212 -12z"/>
<path d="M6146 1159 c-176 -26 -328 -170 -365 -347 -23 -110 -6 -227 46 -324
31 -58 123 -147 181 -177 209 -106 473 -37 596 157 83 132 89 343 14 472 -30
50 -116 137 -163 164 -86 50 -203 71 -309 55z m211 -140 c117 -56 184 -167
186 -305 1 -138 -62 -245 -177 -304 -62 -31 -77 -35 -145 -34 -131 2 -232 67
-287 187 -25 54 -29 74 -29 152 0 78 4 98 29 152 58 127 183 200 316 186 25
-2 73 -18 107 -34z"/>
<path d="M7307 1159 c-79 -13 -151 -54 -212 -121 l-55 -61 0 86 0 87 -65 0
-65 0 0 -570 0 -570 65 0 65 0 0 214 0 214 64 -63 c72 -71 140 -102 240 -112
72 -6 167 15 230 52 63 37 143 126 172 191 55 125 55 300 -1 418 -80 169 -259
265 -438 235z m149 -126 c33 -11 67 -34 106 -73 48 -48 60 -68 79 -130 56
-187 -26 -383 -185 -437 -137 -47 -288 5 -365 126 -115 178 -52 413 134 502
71 34 153 39 231 12z"/>
<path d="M8320 1159 c-159 -27 -295 -166 -330 -336 -17 -81 -8 -215 19 -285
62 -161 198 -262 368 -275 135 -11 246 26 339 111 l49 45 -37 37 -37 37 -36
-31 c-20 -18 -59 -44 -88 -59 -46 -25 -63 -28 -147 -28 -84 0 -101 3 -145 27
-27 14 -64 41 -82 60 -38 39 -83 132 -83 171 l0 27 346 0 347 0 -7 78 c-15
181 -75 295 -194 370 -75 48 -183 68 -282 51z m161 -114 c25 -9 62 -29 82 -46
41 -34 93 -133 103 -196 l7 -43 -282 0 -281 0 0 25 c0 74 84 206 154 242 70
36 145 42 217 18z"/>
<path d="M9390 1160 c-76 -13 -120 -37 -181 -101 l-59 -61 0 76 0 76 -60 0
-60 0 0 -435 0 -435 59 0 59 0 4 283 3 282 28 57 c46 94 132 148 238 148 94 0
168 -43 212 -125 21 -38 22 -55 25 -342 l3 -303 65 0 66 0 -4 318 c-5 362 -8
376 -85 462 -55 62 -100 86 -184 100 -70 11 -65 11 -129 0z"/>
<path d="M11670 1153 c-31 -5 -79 -20 -146 -45 l-52 -19 16 -49 c9 -28 21 -50
26 -50 6 0 35 9 65 20 125 48 286 43 365 -11 48 -32 86 -108 86 -172 0 -41 -3
-48 -17 -43 -150 45 -350 42 -457 -8 -112 -51 -158 -120 -159 -239 0 -84 20
-132 80 -190 74 -73 222 -104 342 -73 71 18 116 43 174 94 l37 34 0 -61 0 -61
66 0 66 0 -5 313 c-2 201 -8 325 -16 349 -33 104 -125 184 -237 207 -55 11
-181 13 -234 4z m303 -457 c32 -7 61 -17 64 -20 4 -4 2 -41 -4 -83 -14 -93
-46 -144 -119 -185 -147 -82 -333 -45 -379 76 -39 103 21 192 152 226 49 12
211 4 286 -14z"/>
<path d="M9972 1138 c3 -7 71 -205 153 -440 l148 -428 56 0 56 0 114 336 c63
184 118 337 121 339 4 3 59 -147 122 -333 l114 -337 56 -3 55 -3 151 434 c84
239 152 437 152 441 0 3 -28 6 -63 6 l-63 0 -114 -345 c-63 -190 -117 -345
-120 -345 -3 0 -57 155 -120 345 l-115 346 -54 -3 -54 -3 -115 -343 c-63 -189
-117 -340 -121 -337 -3 4 -56 158 -116 343 l-111 337 -68 3 c-53 2 -67 0 -64
-10z"/>
<path d="M12320 1143 c0 -4 88 -200 195 -435 l195 -428 -24 -47 c-13 -27 -38
-61 -55 -78 -27 -25 -41 -30 -99 -33 -45 -3 -80 1 -103 11 l-36 15 -21 -50
-21 -49 37 -17 c21 -9 74 -18 125 -20 79 -4 93 -1 142 22 56 28 102 79 143
161 11 22 97 229 190 460 94 231 178 437 187 458 l15 37 -68 0 -68 0 -138
-360 c-77 -197 -142 -358 -146 -355 -3 2 -76 164 -161 359 l-154 356 -67 0
c-38 0 -68 -3 -68 -7z"/>
</g>
</svg>
