<?xml version="1.0" encoding="utf-8"?>
<!-- Generator: Adobe Illustrator 25.4.1, SVG Export Plug-In . SVG Version: 6.00 Build 0)  -->
<svg version="1.0" id="katman_1" xmlns="http://www.w3.org/2000/svg" xmlns:xlink="http://www.w3.org/1999/xlink" x="0px" y="0px"
	 viewBox="210 450 1320 300" xml:space="preserve">
<style type="text/css">
	.st0{fill:#020044;}
	.st1{fill:#39B54A;}
	.st2{fill:#FFFFFF;}
	.st3{fill:#8CC63F;}
	.st4{fill:#D9E021;}
	.st5{fill:#FCEE21;}
	.st6{fill:#009245;}
	.st7{fill:#006837;}
	.st8{fill:#22B573;}
	.st9{fill:#00A99D;}
	.st10{fill:#29ABE2;}
	.st11{fill:#82D6F4;}
</style>
<g>
	<path class="st0" d="M639.1,599.2c-4.7-5.4-7-12.6-7-21.5c0-5.7,1.7-11.1,5.2-16.3c3.5-5.2,8.5-9.3,15-12.5
		c6.5-3.2,14.1-4.8,22.8-4.8c8.6,0,16.3,1.3,22.9,3.8c6.6,2.5,11.8,5.8,15.5,10c3.7,4.2,5.7,8.6,6,13.2c0.1,1.5-0.4,2.9-1.6,4
		c-1.2,1.1-2.5,1.7-4.1,1.7h-16.1c-1.7,0-3-0.2-4-0.7c-1-0.5-2-1.2-3.1-2.2c-1.7-1.4-3.6-2.5-5.7-3.3c-2.2-0.8-5.4-1.3-9.7-1.3
		c-4.6,0-8.4,0.7-11.4,2.1c-3,1.4-4.5,3.5-4.5,6.5c0,2.1,0.7,3.7,2.2,4.9s4,2.2,7.6,3.1c3.6,0.9,10.2,2.4,19.6,4.5
		c12,2.5,20.6,6.5,25.9,12.1c5.3,5.6,7.9,12.7,7.9,21.3c0,5.7-1.9,11.1-5.6,16.2c-3.8,5.1-9.2,9.2-16.2,12.3
		c-7,3.1-15.2,4.7-24.5,4.7c-9.3,0-17.4-1.4-24.3-4.3c-6.9-2.9-12.2-6.5-15.9-11c-3.7-4.5-5.7-9-5.9-13.8c-0.1-1.5,0.4-2.9,1.6-4
		c1.2-1.1,2.5-1.7,4.1-1.7h16.1c1.5,0,2.8,0.3,3.8,0.8c1,0.6,2,1.4,3.1,2.5c1.9,1.9,4.1,3.5,6.5,4.6c2.4,1.1,6.1,1.7,11.1,1.7
		c5,0,9.5-0.7,13.4-2c3.9-1.3,5.8-3.4,5.8-6.2c0-1.8-0.7-3.2-2.1-4.3c-1.4-1-3.5-2-6.5-2.8c-2.9-0.8-7.9-2-15-3.5l-8.2-1.7
		C651.9,608.7,643.7,604.7,639.1,599.2"/>
	<path class="st0" d="M784.1,547.4c4.7-2.1,9.7-3.2,14.8-3.2c16.2,0,27.7,5.9,34.7,17.8c3.6-5.4,8.6-9.7,14.9-13
		c6.3-3.2,12.6-4.8,18.9-4.8c14.8,0,25.4,4.5,31.9,13.5c6.5,9,9.7,20.8,9.7,35.4v56.2c0,1.5-0.6,2.9-1.7,4c-1.1,1.1-2.4,1.7-4,1.7
		h-15.9c-1.5,0-2.9-0.5-4-1.7c-1.1-1.1-1.7-2.4-1.7-4v-55.1c0-9-1.7-15.6-5.2-19.5c-3.5-4-8.6-5.9-15.5-5.9c-6,0-10.9,1.9-14.7,5.8
		c-3.8,3.9-5.8,10.1-5.9,18.6v56.2c0,1.5-0.6,2.9-1.7,4c-1.1,1.1-2.4,1.7-4,1.7H819c-1.5,0-2.9-0.5-4-1.7c-1.1-1.1-1.7-2.4-1.7-4
		v-55.1c0-9-1.7-15.6-5.2-19.5c-3.5-4-8.6-5.9-15.5-5.9c-6.1,0-11.1,2-14.9,6.2c-3.8,4.1-5.7,10.5-5.7,19.3v55.1
		c0,1.5-0.6,2.9-1.7,4c-1.1,1.1-2.4,1.7-4,1.7h-15.9c-1.5,0-2.9-0.5-4-1.7c-1.1-1.1-1.7-2.4-1.7-4v-97.3c0-1.5,0.6-2.9,1.7-4
		c1.1-1.1,2.4-1.7,4-1.7h15.9c1.5,0,2.9,0.6,4,1.7c1.1,1.1,1.7,2.4,1.7,4v4.8C775.3,552.6,779.4,549.5,784.1,547.4"/>
	<path class="st0" d="M1098.7,576.8c-3.7,3.7-5.5,9.7-5.5,18.1v54.3c0,1.5-0.6,2.9-1.7,4c-1.1,1.1-2.4,1.7-4,1.7h-15.9
		c-1.5,0-2.9-0.5-4-1.7c-1.1-1.1-1.7-2.4-1.7-4v-97.3c0-1.5,0.6-2.9,1.7-4c1.1-1.1,2.4-1.7,4-1.7h15.9c1.5,0,2.9,0.6,4,1.7
		c1.1,1.1,1.7,2.4,1.7,4v4.8c3.8-3.6,7.7-6.3,11.9-7.9c4.2-1.7,9.5-2.5,15.9-2.5h9.4c1.5,0,2.9,0.6,4,1.7c1.1,1.1,1.7,2.4,1.7,4
		v13.8c0,1.5-0.6,2.9-1.7,4c-1.1,1.1-2.4,1.7-4,1.7h-13.6C1108.4,571.3,1102.4,573.1,1098.7,576.8"/>
	<path class="st0" d="M1152.4,546.2v-34c0-1.5,0.5-2.9,1.7-4c1.1-1.1,2.4-1.7,4-1.7h15.9c1.5,0,2.9,0.6,4,1.7s1.7,2.4,1.7,4v34h26.9
		c1.5,0,2.9,0.6,4,1.7c1.1,1.1,1.7,2.4,1.7,4v13.8c0,1.5-0.6,2.9-1.7,4c-1.1,1.1-2.4,1.7-4,1.7h-26.9v44.3c0,4.6,1.2,8.1,3.6,10.5
		c2.4,2.4,6.7,3.6,12.6,3.6h12.7c1.5,0,2.9,0.6,4,1.7c1.1,1.1,1.7,2.4,1.7,4v13.8c0,1.5-0.6,2.9-1.7,4c-1.1,1.1-2.4,1.7-4,1.7h-15.5
		c-13.2,0-23.3-3.2-30.3-9.7c-7-6.5-10.4-16.1-10.4-28.9v-44.9V546.2z"/>
	<path class="st0" d="M1340.1,600.5c0,3.5-0.1,5.9-0.2,7.3c-0.4,8.8-2.6,16.9-6.5,24.3c-3.9,7.5-9.3,13.4-16.2,18
		c-6.9,4.5-14.9,6.8-23.9,6.8c-7.8,0-14.3-1.3-19.4-3.8c-5.2-2.5-9.2-5.4-12.1-8.8v4.8c0,1.5-0.6,2.9-1.7,4c-1.1,1.1-2.4,1.7-4,1.7
		h-15.9c-1.5,0-2.9-0.5-4-1.7c-1.1-1.1-1.7-2.4-1.7-4v-137c0-1.5,0.6-2.9,1.7-4c1.1-1.1,2.4-1.7,4-1.7h15.9c1.5,0,2.9,0.6,4,1.7
		s1.7,2.4,1.7,4v44.5c3.1-3.3,7.2-6.3,12.3-8.8c5.2-2.5,11.6-3.8,19.2-3.8c9,0,17,2.3,23.9,6.8c6.9,4.5,12.3,10.5,16.2,18
		c3.9,7.4,6.1,15.6,6.5,24.3C1340.1,594.6,1340.1,597,1340.1,600.5 M1269.9,575.5c-4.7,4.3-7.3,9.9-8,17c-0.1,1.4-0.2,4-0.2,7.9
		s0.1,6.5,0.2,7.9c0.7,7.4,3.3,13.1,7.9,17.2c4.6,4.1,10.4,6.2,17.3,6.2c7.1,0,13-2.1,17.5-6.3s7.3-10.6,8.2-19.2
		c0.3-2.8,0.4-4.7,0.4-5.8c0-10.6-2.4-18.5-7.1-23.6s-11.1-7.7-19-7.7C1280.3,569.2,1274.5,571.3,1269.9,575.5"/>
	<path class="st0" d="M1390.4,508.2c1.1,1.1,1.7,2.4,1.7,4v16.3c0,1.5-0.6,2.9-1.7,4c-1.1,1.1-2.4,1.7-4,1.7h-18
		c-1.5,0-2.9-0.6-4-1.7c-1.1-1.1-1.7-2.4-1.7-4v-16.3c0-1.5,0.5-2.9,1.7-4c1.1-1.1,2.4-1.7,4-1.7h18
		C1388,506.5,1389.3,507.1,1390.4,508.2 M1389.4,653.1c-1.1,1.1-2.4,1.7-4,1.7h-15.9c-1.5,0-2.9-0.6-4-1.7c-1.1-1.1-1.7-2.4-1.7-4
		v-97.3c0-1.5,0.6-2.9,1.7-4c1.1-1.1,2.4-1.7,4-1.7h15.9c1.5,0,2.9,0.6,4,1.7c1.1,1.1,1.7,2.4,1.7,4v97.3
		C1391.1,650.7,1390.5,652,1389.4,653.1"/>
	<path class="st0" d="M1445.4,653.1c-1.1,1.1-2.4,1.7-4,1.7h-15.9c-1.5,0-2.9-0.6-4-1.7c-1.1-1.1-1.7-2.4-1.7-4v-137
		c0-1.5,0.6-2.9,1.7-4c1.1-1.1,2.4-1.7,4-1.7h15.9c1.5,0,2.9,0.6,4,1.7s1.7,2.4,1.7,4v137C1447,650.7,1446.5,652,1445.4,653.1"/>
	<path class="st0" d="M1501.3,653.1c-1.1,1.1-2.4,1.7-4,1.7h-15.9c-1.5,0-2.9-0.6-4-1.7c-1.1-1.1-1.7-2.4-1.7-4v-137
		c0-1.5,0.6-2.9,1.7-4s2.4-1.7,4-1.7h15.9c1.5,0,2.9,0.6,4,1.7s1.7,2.4,1.7,4v137C1503,650.7,1502.5,652,1501.3,653.1"/>
	<path class="st0" d="M1035.5,547.9c-1.1-1.1-2.4-1.7-4-1.7h-15.9c-1.5,0-2.9,0.6-4,1.7c-1.1,1.1-1.7,2.4-1.7,4v4.8
		c-3.1-3.3-7.2-6.3-12.3-8.8c-5.2-2.5-11.6-3.8-19.2-3.8c-9.1,0-17,2.3-23.9,6.8s-12.3,10.5-16.2,18c-3.9,7.4-6.1,15.6-6.5,24.3
		l-0.2,7.3l0.2,7.3c0.4,8.8,2.6,16.9,6.5,24.3c3.9,7.4,9.3,13.4,16.2,18c6.9,4.5,14.9,6.8,23.9,6.8c7.7,0,14.1-1.3,19.2-3.8
		c5.2-2.5,9.3-5.4,12.3-8.8v4.8c0,1.5,0.6,2.9,1.7,4c1.1,1.1,2.4,1.7,4,1.7h15.9c1.5,0,2.9-0.6,4-1.7c1.1-1.1,1.7-2.4,1.7-4v-48.7
		v-48.7C1037.2,550.3,1036.6,549,1035.5,547.9 M1010,608.4c-0.7,7.1-3.4,12.8-8,17c-4.7,4.2-10.4,6.4-17.2,6.4
		c-7.1,0-13-2.1-17.5-6.3c-4.6-4.2-7.3-10.6-8.1-19.2c-0.1-1.4-0.2-3.3-0.2-5.8c0-2.5,0.1-4.5,0.2-5.8c0.8-8.6,3.5-15,8.1-19.2
		c4.6-4.2,10.4-6.3,17.5-6.3c6.8,0,12.6,2.1,17.2,6.4c4.7,4.3,7.3,9.9,8,17c0.3,2.8,0.4,5.4,0.4,7.9
		C1010.5,603,1010.3,605.7,1010,608.4"/>
	<path class="st0" d="M511.5,693.2l-40.9,40.9c-51.2,51.2-134.2,51.2-185.5,0l-40.9-40.9c-51.2-51.2-51.2-134.2,0-185.5l40.9-40.9
		c51.2-51.2,134.2-51.2,185.5,0l40.9,40.9C562.8,559,562.8,642,511.5,693.2"/>
	
		<rect x="347.1" y="689.4" transform="matrix(0.2196 -0.9756 0.9756 0.2196 -392.0083 900.3635)" class="st1" width="39.3" height="11.6"/>
	
		<rect x="377.7" y="599.1" transform="matrix(0.4176 -0.9086 0.9086 0.4176 -318.1879 713.2854)" class="st2" width="39.3" height="11.6"/>
	
		<rect x="329" y="681.1" transform="matrix(0.5974 -0.8019 0.8019 0.5974 -410.475 556.1033)" class="st3" width="39.3" height="11.6"/>
	
		<rect x="315.8" y="666.1" transform="matrix(0.872 -0.4896 0.4896 0.872 -285.9936 250.2846)" class="st4" width="39.3" height="11.6"/>
	
		<rect x="309.9" y="647.1" transform="matrix(0.9957 -9.260032e-02 9.260032e-02 0.9957 -59.0391 33.3213)" class="st5" width="39.3" height="11.6"/>
	
		<rect x="380.9" y="675.8" transform="matrix(0.9806 -0.1962 0.1962 0.9806 -128.9306 89.389)" class="st6" width="11.6" height="39.3"/>
	
		<rect x="399.3" y="667.9" transform="matrix(0.816 -0.5781 0.5781 0.816 -322.9337 360.6761)" class="st7" width="11.6" height="39.3"/>
	
		<rect x="412.8" y="653.2" transform="matrix(0.5103 -0.86 0.86 0.5103 -373.726 689.4628)" class="st8" width="11.6" height="39.3"/>
	
		<rect x="419.1" y="634.4" transform="matrix(0.1164 -0.9932 0.9932 0.1164 -274.088 999.9276)" class="st9" width="11.6" height="39.3"/>
	
		<rect x="403.4" y="628.4" transform="matrix(0.9547 -0.2976 0.2976 0.9547 -169.5493 154.6435)" class="st10" width="39.3" height="11.6"/>
	
		<rect x="393.7" y="611" transform="matrix(0.7511 -0.6602 0.6602 0.7511 -304.311 426.3932)" class="st11" width="39.3" height="11.6"/>
	
		<rect x="369.4" y="499.9" transform="matrix(0.2196 -0.9756 0.9756 0.2196 -189.7613 774.2064)" class="st1" width="39.3" height="11.6"/>
	
		<rect x="338.8" y="590.3" transform="matrix(0.4175 -0.9087 0.9087 0.4175 -332.8076 672.9628)" class="st2" width="39.3" height="11.6"/>
	
		<rect x="387.5" y="508.3" transform="matrix(0.5974 -0.8019 0.8019 0.5974 -248.3183 533.4514)" class="st3" width="39.3" height="11.6"/>
	
		<rect x="400.7" y="523.2" transform="matrix(0.872 -0.4896 0.4896 0.872 -205.1779 273.5281)" class="st4" width="39.3" height="11.6"/>
	
		<rect x="406.6" y="542.3" transform="matrix(0.9957 -9.260032e-02 9.260032e-02 0.9957 -48.9185 41.8266)" class="st5" width="39.3" height="11.6"/>
	
		<rect x="363.3" y="485.8" transform="matrix(0.9806 -0.1962 0.1962 0.9806 -91.9997 82.2413)" class="st6" width="11.6" height="39.3"/>
	
		<rect x="345" y="493.7" transform="matrix(0.816 -0.5781 0.5781 0.816 -232.22 297.2605)" class="st7" width="11.6" height="39.3"/>
	
		<rect x="331.5" y="508.4" transform="matrix(0.5103 -0.86 0.86 0.5103 -288.942 548.629)" class="st8" width="11.6" height="39.3"/>
	
		<rect x="325.1" y="527.3" transform="matrix(0.1164 -0.9932 0.9932 0.1164 -250.832 811.9016)" class="st9" width="11.6" height="39.3"/>
	
		<rect x="313.1" y="561" transform="matrix(0.9547 -0.2976 0.2976 0.9547 -153.5935 124.7032)" class="st10" width="39.3" height="11.6"/>
	
		<rect x="322.8" y="578.4" transform="matrix(0.751 -0.6603 0.6603 0.751 -300.4391 371.6014)" class="st11" width="39.3" height="11.6"/>
	<polygon class="st2" points="383.4,620.2 383.5,620.2 384,580.9 372.4,580.7 372.4,580.8 372.3,580.8 371.9,620 383.4,620.2 	"/>
</g>
</svg>
