<?xml version="1.0" standalone="no"?>
<!DOCTYPE svg PUBLIC "-//W3C//DTD SVG 20010904//EN"
 "http://www.w3.org/TR/2001/REC-SVG-20010904/DTD/svg10.dtd">
<svg version="1.0" xmlns="http://www.w3.org/2000/svg"
 width="162.000000pt" height="50.000000pt" viewBox="0 0 162.000000 50.000000"
 preserveAspectRatio="xMidYMid meet">

<g transform="translate(0.000000,50.000000) scale(0.100000,-0.100000)"
fill="#000000" stroke="none">
<path d="M333 260 c-35 -15 -43 -42 -43 -149 l0 -101 38 0 37 0 -3 79 c-5 94
7 124 46 119 l27 -3 3 -97 3 -98 39 0 39 0 3 98 3 97 29 3 c16 2 32 -2 37 -10
5 -7 9 -52 9 -100 l0 -88 35 0 35 0 0 105 c0 100 -1 107 -25 131 -24 23 -31
25 -83 20 -76 -8 -88 -8 -152 -2 -30 3 -65 2 -77 -4z"/>
<path d="M1000 258 c-56 -30 -65 -181 -14 -229 22 -21 36 -24 96 -24 64 0 72
2 94 28 21 25 24 38 24 106 0 108 -13 124 -106 129 -44 2 -78 -2 -94 -10z
m114 -54 c19 -19 22 -114 4 -132 -7 -7 -24 -12 -38 -12 -39 0 -50 18 -50 82 0
44 4 59 18 67 25 15 48 13 66 -5z"/>
<path d="M62 244 c-17 -12 -22 -25 -22 -59 0 -52 24 -75 81 -75 47 0 69 -8 69
-26 0 -9 -20 -14 -72 -16 -69 -3 -72 -4 -79 -31 l-8 -29 96 4 c85 3 97 5 114
27 25 30 25 83 0 105 -11 10 -44 21 -73 25 -39 4 -54 11 -56 24 -3 15 5 17 67
17 69 0 71 1 71 25 0 25 -1 25 -83 25 -59 0 -89 -5 -105 -16z"/>
<path d="M725 235 c-53 -52 -13 -125 68 -125 42 0 75 -19 60 -33 -3 -4 -37 -7
-75 -7 -52 0 -68 -3 -68 -14 0 -8 -3 -21 -6 -30 -5 -14 5 -16 75 -16 102 0
137 16 146 64 12 60 -25 96 -98 96 -18 0 -38 4 -46 9 -27 17 1 31 64 31 62 0
75 7 75 41 0 5 -38 9 -85 9 -78 0 -88 -2 -110 -25z"/>
</g>
</svg>
