<svg width="100" height="23" viewBox="0 0 100 23" fill="none" xmlns="http://www.w3.org/2000/svg"><path fill-rule="evenodd" clip-rule="evenodd" d="M63.3101 16.4354V18.3976H65.6711V0H63.1094V6.303H63.0622C61.9762 4.91158 60.1464 4.2456 58.4229 4.2456C54.2793 4.2456 51.3163 7.43278 51.3163 11.5595C51.3163 15.6624 54.3265 18.7425 58.4229 18.7425C60.3235 18.7425 62.1296 18.0289 63.2629 16.4354H63.3101ZM53.8779 11.5357C53.8779 8.84797 55.8494 6.61219 58.5645 6.61219C61.3623 6.61219 63.3101 8.77662 63.2983 11.5357C63.2983 14.1996 61.2088 16.3878 58.5409 16.3878C55.932 16.3878 53.8779 14.1163 53.8779 11.5357Z" fill="#F27A1A"/><path d="M47.1019 10.9173V18.3976H49.6754V10.2394C49.6754 9.01451 49.4747 7.75391 48.8136 6.70737C47.7511 5.01864 45.9214 4.24564 43.9735 4.24564C42.3917 4.24564 40.9633 4.7689 39.9717 6.08896H39.9244V4.62619H37.528V18.3976H40.0897V10.8935C40.0897 8.57449 41.1758 6.61223 43.6902 6.61223C46.4054 6.61223 47.1019 8.58638 47.1019 10.9173Z" fill="#F27A1A"/><path fill-rule="evenodd" clip-rule="evenodd" d="M35.7573 12.6297H24.4363C24.9557 14.7704 26.6793 16.3878 28.9222 16.3878C30.1853 16.3878 31.4249 15.8407 32.2512 14.9012L34.99 14.9607C33.7859 17.2678 31.4839 18.7425 28.816 18.7425C24.9203 18.7425 21.8628 15.3412 21.8628 11.4881C21.8628 7.51599 24.8731 4.25746 28.875 4.25746C32.747 4.25746 35.8399 7.46842 35.8399 11.3454C35.8281 11.7616 35.8045 12.2135 35.7573 12.6297ZM28.8396 6.61219C26.6202 6.61219 24.5662 8.37227 24.4245 10.6437H33.2546C33.113 8.38417 31.0707 6.61219 28.8396 6.61219Z" fill="#F27A1A"/><path d="M70.4403 23H73.0964L80.6516 4.62617H77.8893L73.7693 15.3175L69.7438 4.62617H66.9815L72.4354 18.1241L70.4403 23Z" fill="#F27A1A"/><path fill-rule="evenodd" clip-rule="evenodd" d="M80.5808 11.4049C80.5808 15.484 83.9334 18.7425 87.9589 18.7425C92.1025 18.7425 95.337 15.3889 95.337 11.4525C95.337 7.37335 91.9608 4.24564 87.9589 4.24564C84.0161 4.24564 80.5808 7.34956 80.5808 11.4049ZM83.1425 11.4881C83.1425 8.8004 85.291 6.61219 87.9589 6.61219C90.615 6.61219 92.7635 8.77662 92.7754 11.4643C92.7754 14.152 90.6505 16.3878 87.9589 16.3878C85.291 16.3878 83.1425 14.1758 83.1425 11.4881Z" fill="#F27A1A"/><path d="M97.4265 0V18.3976H100V0H97.4265Z" fill="#F27A1A"/><path d="M2.53807 15.6861C2.64432 16.1261 2.78598 16.4829 2.95125 16.7564C3.11652 17.03 3.32901 17.2678 3.57691 17.4938C4.39145 18.2073 5.41849 18.576 6.6344 18.576C7.83851 18.576 8.97179 18.2787 9.99882 17.7078V15.2342C8.93637 15.8645 7.92114 16.1856 6.96494 16.1856C5.66639 16.1856 4.99351 15.3888 4.99351 13.8071V7.0641H9.30233V4.67372H5.00531V0.249728H2.46724V4.66183H0V7.05221H2.361V13.1649C2.361 14.4017 2.42002 15.2461 2.53807 15.6861Z" fill="#F27A1A"/><path d="M20.6587 8.25337C19.7261 7.37333 18.8526 6.9333 18.0616 6.9333C17.1881 6.9333 16.4207 7.36143 15.7833 8.2058C15.1458 9.05016 14.8271 10.0491 14.8271 11.1908V18.3263H12.1709V4.67374H14.8271L14.8153 6.52896L14.8625 6.44571C16.1138 4.40021 17.6484 4.40021 18.5692 4.40021H18.7463C19.549 4.40021 20.9184 4.87591 22.0517 5.92245L20.6587 8.25337Z" fill="#F27A1A"/></svg>